<svg width="154" height="167" viewBox="0 0 154 167" fill="none" xmlns="http://www.w3.org/2000/svg">
<path fill-rule="evenodd" clip-rule="evenodd" d="M5 2.5C5 3.88125 3.88125 5 2.5 5C1.11875 5 0 3.88125 0 2.5C0 1.11875 1.11875 0 2.5 0C3.88125 0 5 1.11875 5 2.5Z" fill="#1D293F"/>
<path fill-rule="evenodd" clip-rule="evenodd" d="M5 15.5C5 16.8812 3.88125 18 2.5 18C1.11875 18 0 16.8812 0 15.5C0 14.1187 1.11875 13 2.5 13C3.88125 13 5 14.1187 5 15.5Z" fill="#1D293F"/>
<path fill-rule="evenodd" clip-rule="evenodd" d="M19 15.5C19 16.8812 17.8812 18 16.5 18C15.1187 18 14 16.8812 14 15.5C14 14.1187 15.1187 13 16.5 13C17.8812 13 19 14.1187 19 15.5Z" fill="#1D293F"/>
<path fill-rule="evenodd" clip-rule="evenodd" d="M32 15.5C32 16.8812 30.8812 18 29.5 18C28.1187 18 27 16.8812 27 15.5C27 14.1187 28.1187 13 29.5 13C30.8812 13 32 14.1187 32 15.5Z" fill="#1D293F"/>
<path fill-rule="evenodd" clip-rule="evenodd" d="M45 15.5C45 16.8812 43.8812 18 42.5 18C41.1187 18 40 16.8812 40 15.5C40 14.1187 41.1187 13 42.5 13C43.8812 13 45 14.1187 45 15.5Z" fill="#1D293F"/>
<path fill-rule="evenodd" clip-rule="evenodd" d="M59 15.5C59 16.8812 57.8812 18 56.5 18C55.1187 18 54 16.8812 54 15.5C54 14.1187 55.1187 13 56.5 13C57.8812 13 59 14.1187 59 15.5Z" fill="#1D293F"/>
<path fill-rule="evenodd" clip-rule="evenodd" d="M73 15.5C73 16.8812 71.8812 18 70.5 18C69.1187 18 68 16.8812 68 15.5C68 14.1187 69.1187 13 70.5 13C71.8812 13 73 14.1187 73 15.5Z" fill="#1D293F"/>
<path fill-rule="evenodd" clip-rule="evenodd" d="M87 15.5C87 16.8812 85.8812 18 84.5 18C83.1187 18 82 16.8812 82 15.5C82 14.1187 83.1187 13 84.5 13C85.8812 13 87 14.1187 87 15.5Z" fill="#1D293F"/>
<path fill-rule="evenodd" clip-rule="evenodd" d="M100 15.5C100 16.8812 98.8812 18 97.5 18C96.1187 18 95 16.8812 95 15.5C95 14.1187 96.1187 13 97.5 13C98.8812 13 100 14.1187 100 15.5Z" fill="#1D293F"/>
<path fill-rule="evenodd" clip-rule="evenodd" d="M114 15.5C114 16.8812 112.881 18 111.5 18C110.119 18 109 16.8812 109 15.5C109 14.1187 110.119 13 111.5 13C112.881 13 114 14.1187 114 15.5Z" fill="#1D293F"/>
<path fill-rule="evenodd" clip-rule="evenodd" d="M127 15.5C127 16.8812 125.881 18 124.5 18C123.119 18 122 16.8812 122 15.5C122 14.1187 123.119 13 124.5 13C125.881 13 127 14.1187 127 15.5Z" fill="#1D293F"/>
<path fill-rule="evenodd" clip-rule="evenodd" d="M140 15.5C140 16.8812 138.881 18 137.5 18C136.119 18 135 16.8812 135 15.5C135 14.1187 136.119 13 137.5 13C138.881 13 140 14.1187 140 15.5Z" fill="#1D293F"/>
<path fill-rule="evenodd" clip-rule="evenodd" d="M154 15.5C154 16.8812 152.881 18 151.5 18C150.119 18 149 16.8812 149 15.5C149 14.1187 150.119 13 151.5 13C152.881 13 154 14.1187 154 15.5Z" fill="#1D293F"/>
<path fill-rule="evenodd" clip-rule="evenodd" d="M5 29.5C5 30.8812 3.88125 32 2.5 32C1.11875 32 0 30.8812 0 29.5C0 28.1187 1.11875 27 2.5 27C3.88125 27 5 28.1187 5 29.5Z" fill="#1D293F"/>
<path fill-rule="evenodd" clip-rule="evenodd" d="M19 29.5C19 30.8812 17.8812 32 16.5 32C15.1187 32 14 30.8812 14 29.5C14 28.1187 15.1187 27 16.5 27C17.8812 27 19 28.1187 19 29.5Z" fill="#1D293F"/>
<path fill-rule="evenodd" clip-rule="evenodd" d="M32 29.5C32 30.8812 30.8812 32 29.5 32C28.1187 32 27 30.8812 27 29.5C27 28.1187 28.1187 27 29.5 27C30.8812 27 32 28.1187 32 29.5Z" fill="#1D293F"/>
<path fill-rule="evenodd" clip-rule="evenodd" d="M45 29.5C45 30.8812 43.8812 32 42.5 32C41.1187 32 40 30.8812 40 29.5C40 28.1187 41.1187 27 42.5 27C43.8812 27 45 28.1187 45 29.5Z" fill="#1D293F"/>
<path fill-rule="evenodd" clip-rule="evenodd" d="M59 29.5C59 30.8812 57.8812 32 56.5 32C55.1187 32 54 30.8812 54 29.5C54 28.1187 55.1187 27 56.5 27C57.8812 27 59 28.1187 59 29.5Z" fill="#1D293F"/>
<path fill-rule="evenodd" clip-rule="evenodd" d="M73 29.5C73 30.8812 71.8812 32 70.5 32C69.1187 32 68 30.8812 68 29.5C68 28.1187 69.1187 27 70.5 27C71.8812 27 73 28.1187 73 29.5Z" fill="#1D293F"/>
<path fill-rule="evenodd" clip-rule="evenodd" d="M87 29.5C87 30.8812 85.8812 32 84.5 32C83.1187 32 82 30.8812 82 29.5C82 28.1187 83.1187 27 84.5 27C85.8812 27 87 28.1187 87 29.5Z" fill="#1D293F"/>
<path fill-rule="evenodd" clip-rule="evenodd" d="M100 29.5C100 30.8812 98.8812 32 97.5 32C96.1187 32 95 30.8812 95 29.5C95 28.1187 96.1187 27 97.5 27C98.8812 27 100 28.1187 100 29.5Z" fill="#1D293F"/>
<path fill-rule="evenodd" clip-rule="evenodd" d="M114 29.5C114 30.8812 112.881 32 111.5 32C110.119 32 109 30.8812 109 29.5C109 28.1187 110.119 27 111.5 27C112.881 27 114 28.1187 114 29.5Z" fill="#1D293F"/>
<path fill-rule="evenodd" clip-rule="evenodd" d="M127 29.5C127 30.8812 125.881 32 124.5 32C123.119 32 122 30.8812 122 29.5C122 28.1187 123.119 27 124.5 27C125.881 27 127 28.1187 127 29.5Z" fill="#1D293F"/>
<path fill-rule="evenodd" clip-rule="evenodd" d="M140 29.5C140 30.8812 138.881 32 137.5 32C136.119 32 135 30.8812 135 29.5C135 28.1187 136.119 27 137.5 27C138.881 27 140 28.1187 140 29.5Z" fill="#1D293F"/>
<path fill-rule="evenodd" clip-rule="evenodd" d="M154 29.5C154 30.8812 152.881 32 151.5 32C150.119 32 149 30.8812 149 29.5C149 28.1187 150.119 27 151.5 27C152.881 27 154 28.1187 154 29.5Z" fill="#1D293F"/>
<path fill-rule="evenodd" clip-rule="evenodd" d="M5 42.5C5 43.8812 3.88125 45 2.5 45C1.11875 45 0 43.8812 0 42.5C0 41.1187 1.11875 40 2.5 40C3.88125 40 5 41.1187 5 42.5Z" fill="#1D293F"/>
<path fill-rule="evenodd" clip-rule="evenodd" d="M19 42.5C19 43.8812 17.8812 45 16.5 45C15.1187 45 14 43.8812 14 42.5C14 41.1187 15.1187 40 16.5 40C17.8812 40 19 41.1187 19 42.5Z" fill="#1D293F"/>
<path fill-rule="evenodd" clip-rule="evenodd" d="M32 42.5C32 43.8812 30.8812 45 29.5 45C28.1187 45 27 43.8812 27 42.5C27 41.1187 28.1187 40 29.5 40C30.8812 40 32 41.1187 32 42.5Z" fill="#1D293F"/>
<path fill-rule="evenodd" clip-rule="evenodd" d="M45 42.5C45 43.8812 43.8812 45 42.5 45C41.1187 45 40 43.8812 40 42.5C40 41.1187 41.1187 40 42.5 40C43.8812 40 45 41.1187 45 42.5Z" fill="#1D293F"/>
<path fill-rule="evenodd" clip-rule="evenodd" d="M59 42.5C59 43.8812 57.8812 45 56.5 45C55.1187 45 54 43.8812 54 42.5C54 41.1187 55.1187 40 56.5 40C57.8812 40 59 41.1187 59 42.5Z" fill="#1D293F"/>
<path fill-rule="evenodd" clip-rule="evenodd" d="M73 42.5C73 43.8812 71.8812 45 70.5 45C69.1187 45 68 43.8812 68 42.5C68 41.1187 69.1187 40 70.5 40C71.8812 40 73 41.1187 73 42.5Z" fill="#1D293F"/>
<path fill-rule="evenodd" clip-rule="evenodd" d="M87 42.5C87 43.8812 85.8812 45 84.5 45C83.1187 45 82 43.8812 82 42.5C82 41.1187 83.1187 40 84.5 40C85.8812 40 87 41.1187 87 42.5Z" fill="#1D293F"/>
<path fill-rule="evenodd" clip-rule="evenodd" d="M100 42.5C100 43.8812 98.8812 45 97.5 45C96.1187 45 95 43.8812 95 42.5C95 41.1187 96.1187 40 97.5 40C98.8812 40 100 41.1187 100 42.5Z" fill="#1D293F"/>
<path fill-rule="evenodd" clip-rule="evenodd" d="M114 42.5C114 43.8812 112.881 45 111.5 45C110.119 45 109 43.8812 109 42.5C109 41.1187 110.119 40 111.5 40C112.881 40 114 41.1187 114 42.5Z" fill="#1D293F"/>
<path fill-rule="evenodd" clip-rule="evenodd" d="M127 42.5C127 43.8812 125.881 45 124.5 45C123.119 45 122 43.8812 122 42.5C122 41.1187 123.119 40 124.5 40C125.881 40 127 41.1187 127 42.5Z" fill="#1D293F"/>
<path fill-rule="evenodd" clip-rule="evenodd" d="M140 42.5C140 43.8812 138.881 45 137.5 45C136.119 45 135 43.8812 135 42.5C135 41.1187 136.119 40 137.5 40C138.881 40 140 41.1187 140 42.5Z" fill="#1D293F"/>
<path fill-rule="evenodd" clip-rule="evenodd" d="M154 42.5C154 43.8812 152.881 45 151.5 45C150.119 45 149 43.8812 149 42.5C149 41.1187 150.119 40 151.5 40C152.881 40 154 41.1187 154 42.5Z" fill="#1D293F"/>
<path fill-rule="evenodd" clip-rule="evenodd" d="M5 56.5C5 57.8812 3.88125 59 2.5 59C1.11875 59 0 57.8812 0 56.5C0 55.1187 1.11875 54 2.5 54C3.88125 54 5 55.1187 5 56.5Z" fill="#1D293F"/>
<path fill-rule="evenodd" clip-rule="evenodd" d="M19 56.5C19 57.8812 17.8812 59 16.5 59C15.1187 59 14 57.8812 14 56.5C14 55.1187 15.1187 54 16.5 54C17.8812 54 19 55.1187 19 56.5Z" fill="#1D293F"/>
<path fill-rule="evenodd" clip-rule="evenodd" d="M32 56.5C32 57.8812 30.8812 59 29.5 59C28.1187 59 27 57.8812 27 56.5C27 55.1187 28.1187 54 29.5 54C30.8812 54 32 55.1187 32 56.5Z" fill="#1D293F"/>
<path fill-rule="evenodd" clip-rule="evenodd" d="M45 56.5C45 57.8812 43.8812 59 42.5 59C41.1187 59 40 57.8812 40 56.5C40 55.1187 41.1187 54 42.5 54C43.8812 54 45 55.1187 45 56.5Z" fill="#1D293F"/>
<path fill-rule="evenodd" clip-rule="evenodd" d="M59 56.5C59 57.8812 57.8812 59 56.5 59C55.1187 59 54 57.8812 54 56.5C54 55.1187 55.1187 54 56.5 54C57.8812 54 59 55.1187 59 56.5Z" fill="#1D293F"/>
<path fill-rule="evenodd" clip-rule="evenodd" d="M73 56.5C73 57.8812 71.8812 59 70.5 59C69.1187 59 68 57.8812 68 56.5C68 55.1187 69.1187 54 70.5 54C71.8812 54 73 55.1187 73 56.5Z" fill="#1D293F"/>
<path fill-rule="evenodd" clip-rule="evenodd" d="M87 56.5C87 57.8812 85.8812 59 84.5 59C83.1187 59 82 57.8812 82 56.5C82 55.1187 83.1187 54 84.5 54C85.8812 54 87 55.1187 87 56.5Z" fill="#1D293F"/>
<path fill-rule="evenodd" clip-rule="evenodd" d="M100 56.5C100 57.8812 98.8812 59 97.5 59C96.1187 59 95 57.8812 95 56.5C95 55.1187 96.1187 54 97.5 54C98.8812 54 100 55.1187 100 56.5Z" fill="#1D293F"/>
<path fill-rule="evenodd" clip-rule="evenodd" d="M114 56.5C114 57.8812 112.881 59 111.5 59C110.119 59 109 57.8812 109 56.5C109 55.1187 110.119 54 111.5 54C112.881 54 114 55.1187 114 56.5Z" fill="#1D293F"/>
<path fill-rule="evenodd" clip-rule="evenodd" d="M127 56.5C127 57.8812 125.881 59 124.5 59C123.119 59 122 57.8812 122 56.5C122 55.1187 123.119 54 124.5 54C125.881 54 127 55.1187 127 56.5Z" fill="#1D293F"/>
<path fill-rule="evenodd" clip-rule="evenodd" d="M140 56.5C140 57.8812 138.881 59 137.5 59C136.119 59 135 57.8812 135 56.5C135 55.1187 136.119 54 137.5 54C138.881 54 140 55.1187 140 56.5Z" fill="#1D293F"/>
<path fill-rule="evenodd" clip-rule="evenodd" d="M154 56.5C154 57.8812 152.881 59 151.5 59C150.119 59 149 57.8812 149 56.5C149 55.1187 150.119 54 151.5 54C152.881 54 154 55.1187 154 56.5Z" fill="#1D293F"/>
<path fill-rule="evenodd" clip-rule="evenodd" d="M5 69.5C5 70.8812 3.88125 72 2.5 72C1.11875 72 0 70.8812 0 69.5C0 68.1187 1.11875 67 2.5 67C3.88125 67 5 68.1187 5 69.5Z" fill="#1D293F"/>
<path fill-rule="evenodd" clip-rule="evenodd" d="M19 69.5C19 70.8812 17.8812 72 16.5 72C15.1187 72 14 70.8812 14 69.5C14 68.1187 15.1187 67 16.5 67C17.8812 67 19 68.1187 19 69.5Z" fill="#1D293F"/>
<path fill-rule="evenodd" clip-rule="evenodd" d="M32 69.5C32 70.8812 30.8812 72 29.5 72C28.1187 72 27 70.8812 27 69.5C27 68.1187 28.1187 67 29.5 67C30.8812 67 32 68.1187 32 69.5Z" fill="#1D293F"/>
<path fill-rule="evenodd" clip-rule="evenodd" d="M45 69.5C45 70.8812 43.8812 72 42.5 72C41.1187 72 40 70.8812 40 69.5C40 68.1187 41.1187 67 42.5 67C43.8812 67 45 68.1187 45 69.5Z" fill="#1D293F"/>
<path fill-rule="evenodd" clip-rule="evenodd" d="M59 69.5C59 70.8812 57.8812 72 56.5 72C55.1187 72 54 70.8812 54 69.5C54 68.1187 55.1187 67 56.5 67C57.8812 67 59 68.1187 59 69.5Z" fill="#1D293F"/>
<path fill-rule="evenodd" clip-rule="evenodd" d="M73 69.5C73 70.8812 71.8812 72 70.5 72C69.1187 72 68 70.8812 68 69.5C68 68.1187 69.1187 67 70.5 67C71.8812 67 73 68.1187 73 69.5Z" fill="#1D293F"/>
<path fill-rule="evenodd" clip-rule="evenodd" d="M87 69.5C87 70.8812 85.8812 72 84.5 72C83.1187 72 82 70.8812 82 69.5C82 68.1187 83.1187 67 84.5 67C85.8812 67 87 68.1187 87 69.5Z" fill="#1D293F"/>
<path fill-rule="evenodd" clip-rule="evenodd" d="M100 69.5C100 70.8812 98.8812 72 97.5 72C96.1187 72 95 70.8812 95 69.5C95 68.1187 96.1187 67 97.5 67C98.8812 67 100 68.1187 100 69.5Z" fill="#1D293F"/>
<path fill-rule="evenodd" clip-rule="evenodd" d="M114 69.5C114 70.8812 112.881 72 111.5 72C110.119 72 109 70.8812 109 69.5C109 68.1187 110.119 67 111.5 67C112.881 67 114 68.1187 114 69.5Z" fill="#1D293F"/>
<path fill-rule="evenodd" clip-rule="evenodd" d="M127 69.5C127 70.8812 125.881 72 124.5 72C123.119 72 122 70.8812 122 69.5C122 68.1187 123.119 67 124.5 67C125.881 67 127 68.1187 127 69.5Z" fill="#1D293F"/>
<path fill-rule="evenodd" clip-rule="evenodd" d="M140 69.5C140 70.8812 138.881 72 137.5 72C136.119 72 135 70.8812 135 69.5C135 68.1187 136.119 67 137.5 67C138.881 67 140 68.1187 140 69.5Z" fill="#1D293F"/>
<path fill-rule="evenodd" clip-rule="evenodd" d="M154 69.5C154 70.8812 152.881 72 151.5 72C150.119 72 149 70.8812 149 69.5C149 68.1187 150.119 67 151.5 67C152.881 67 154 68.1187 154 69.5Z" fill="#1D293F"/>
<path fill-rule="evenodd" clip-rule="evenodd" d="M5 83.5C5 84.8812 3.88125 86 2.5 86C1.11875 86 0 84.8812 0 83.5C0 82.1187 1.11875 81 2.5 81C3.88125 81 5 82.1187 5 83.5Z" fill="#1D293F"/>
<path fill-rule="evenodd" clip-rule="evenodd" d="M19 83.5C19 84.8812 17.8812 86 16.5 86C15.1187 86 14 84.8812 14 83.5C14 82.1187 15.1187 81 16.5 81C17.8812 81 19 82.1187 19 83.5Z" fill="#1D293F"/>
<path fill-rule="evenodd" clip-rule="evenodd" d="M32 83.5C32 84.8812 30.8812 86 29.5 86C28.1187 86 27 84.8812 27 83.5C27 82.1187 28.1187 81 29.5 81C30.8812 81 32 82.1187 32 83.5Z" fill="#1D293F"/>
<path fill-rule="evenodd" clip-rule="evenodd" d="M45 83.5C45 84.8812 43.8812 86 42.5 86C41.1187 86 40 84.8812 40 83.5C40 82.1187 41.1187 81 42.5 81C43.8812 81 45 82.1187 45 83.5Z" fill="#1D293F"/>
<path fill-rule="evenodd" clip-rule="evenodd" d="M59 83.5C59 84.8812 57.8812 86 56.5 86C55.1187 86 54 84.8812 54 83.5C54 82.1187 55.1187 81 56.5 81C57.8812 81 59 82.1187 59 83.5Z" fill="#1D293F"/>
<path fill-rule="evenodd" clip-rule="evenodd" d="M73 83.5C73 84.8812 71.8812 86 70.5 86C69.1187 86 68 84.8812 68 83.5C68 82.1187 69.1187 81 70.5 81C71.8812 81 73 82.1187 73 83.5Z" fill="#1D293F"/>
<path fill-rule="evenodd" clip-rule="evenodd" d="M87 83.5C87 84.8812 85.8812 86 84.5 86C83.1187 86 82 84.8812 82 83.5C82 82.1187 83.1187 81 84.5 81C85.8812 81 87 82.1187 87 83.5Z" fill="#1D293F"/>
<path fill-rule="evenodd" clip-rule="evenodd" d="M100 83.5C100 84.8812 98.8812 86 97.5 86C96.1187 86 95 84.8812 95 83.5C95 82.1187 96.1187 81 97.5 81C98.8812 81 100 82.1187 100 83.5Z" fill="#1D293F"/>
<path fill-rule="evenodd" clip-rule="evenodd" d="M114 83.5C114 84.8812 112.881 86 111.5 86C110.119 86 109 84.8812 109 83.5C109 82.1187 110.119 81 111.5 81C112.881 81 114 82.1187 114 83.5Z" fill="#1D293F"/>
<path fill-rule="evenodd" clip-rule="evenodd" d="M127 83.5C127 84.8812 125.881 86 124.5 86C123.119 86 122 84.8812 122 83.5C122 82.1187 123.119 81 124.5 81C125.881 81 127 82.1187 127 83.5Z" fill="#1D293F"/>
<path fill-rule="evenodd" clip-rule="evenodd" d="M140 83.5C140 84.8812 138.881 86 137.5 86C136.119 86 135 84.8812 135 83.5C135 82.1187 136.119 81 137.5 81C138.881 81 140 82.1187 140 83.5Z" fill="#1D293F"/>
<path fill-rule="evenodd" clip-rule="evenodd" d="M154 83.5C154 84.8812 152.881 86 151.5 86C150.119 86 149 84.8812 149 83.5C149 82.1187 150.119 81 151.5 81C152.881 81 154 82.1187 154 83.5Z" fill="#1D293F"/>
<path fill-rule="evenodd" clip-rule="evenodd" d="M5 97.5C5 98.8812 3.88125 100 2.5 100C1.11875 100 0 98.8812 0 97.5C0 96.1187 1.11875 95 2.5 95C3.88125 95 5 96.1187 5 97.5Z" fill="#1D293F"/>
<path fill-rule="evenodd" clip-rule="evenodd" d="M19 97.5C19 98.8812 17.8812 100 16.5 100C15.1187 100 14 98.8812 14 97.5C14 96.1187 15.1187 95 16.5 95C17.8812 95 19 96.1187 19 97.5Z" fill="#1D293F"/>
<path fill-rule="evenodd" clip-rule="evenodd" d="M32 97.5C32 98.8812 30.8812 100 29.5 100C28.1187 100 27 98.8812 27 97.5C27 96.1187 28.1187 95 29.5 95C30.8812 95 32 96.1187 32 97.5Z" fill="#1D293F"/>
<path fill-rule="evenodd" clip-rule="evenodd" d="M45 97.5C45 98.8812 43.8812 100 42.5 100C41.1187 100 40 98.8812 40 97.5C40 96.1187 41.1187 95 42.5 95C43.8812 95 45 96.1187 45 97.5Z" fill="#1D293F"/>
<path fill-rule="evenodd" clip-rule="evenodd" d="M59 97.5C59 98.8812 57.8812 100 56.5 100C55.1187 100 54 98.8812 54 97.5C54 96.1187 55.1187 95 56.5 95C57.8812 95 59 96.1187 59 97.5Z" fill="#1D293F"/>
<path fill-rule="evenodd" clip-rule="evenodd" d="M73 97.5C73 98.8812 71.8812 100 70.5 100C69.1187 100 68 98.8812 68 97.5C68 96.1187 69.1187 95 70.5 95C71.8812 95 73 96.1187 73 97.5Z" fill="#1D293F"/>
<path fill-rule="evenodd" clip-rule="evenodd" d="M87 97.5C87 98.8812 85.8812 100 84.5 100C83.1187 100 82 98.8812 82 97.5C82 96.1187 83.1187 95 84.5 95C85.8812 95 87 96.1187 87 97.5Z" fill="#1D293F"/>
<path fill-rule="evenodd" clip-rule="evenodd" d="M100 97.5C100 98.8812 98.8812 100 97.5 100C96.1187 100 95 98.8812 95 97.5C95 96.1187 96.1187 95 97.5 95C98.8812 95 100 96.1187 100 97.5Z" fill="#1D293F"/>
<path fill-rule="evenodd" clip-rule="evenodd" d="M114 97.5C114 98.8812 112.881 100 111.5 100C110.119 100 109 98.8812 109 97.5C109 96.1187 110.119 95 111.5 95C112.881 95 114 96.1187 114 97.5Z" fill="#1D293F"/>
<path fill-rule="evenodd" clip-rule="evenodd" d="M127 97.5C127 98.8812 125.881 100 124.5 100C123.119 100 122 98.8812 122 97.5C122 96.1187 123.119 95 124.5 95C125.881 95 127 96.1187 127 97.5Z" fill="#1D293F"/>
<path fill-rule="evenodd" clip-rule="evenodd" d="M140 97.5C140 98.8812 138.881 100 137.5 100C136.119 100 135 98.8812 135 97.5C135 96.1187 136.119 95 137.5 95C138.881 95 140 96.1187 140 97.5Z" fill="#1D293F"/>
<path fill-rule="evenodd" clip-rule="evenodd" d="M154 97.5C154 98.8812 152.881 100 151.5 100C150.119 100 149 98.8812 149 97.5C149 96.1187 150.119 95 151.5 95C152.881 95 154 96.1187 154 97.5Z" fill="#1D293F"/>
<path fill-rule="evenodd" clip-rule="evenodd" d="M5 110.5C5 111.881 3.88125 113 2.5 113C1.11875 113 0 111.881 0 110.5C0 109.119 1.11875 108 2.5 108C3.88125 108 5 109.119 5 110.5Z" fill="#1D293F"/>
<path fill-rule="evenodd" clip-rule="evenodd" d="M19 110.5C19 111.881 17.8812 113 16.5 113C15.1187 113 14 111.881 14 110.5C14 109.119 15.1187 108 16.5 108C17.8812 108 19 109.119 19 110.5Z" fill="#1D293F"/>
<path fill-rule="evenodd" clip-rule="evenodd" d="M32 110.5C32 111.881 30.8812 113 29.5 113C28.1187 113 27 111.881 27 110.5C27 109.119 28.1187 108 29.5 108C30.8812 108 32 109.119 32 110.5Z" fill="#1D293F"/>
<path fill-rule="evenodd" clip-rule="evenodd" d="M45 110.5C45 111.881 43.8812 113 42.5 113C41.1187 113 40 111.881 40 110.5C40 109.119 41.1187 108 42.5 108C43.8812 108 45 109.119 45 110.5Z" fill="#1D293F"/>
<path fill-rule="evenodd" clip-rule="evenodd" d="M59 110.5C59 111.881 57.8812 113 56.5 113C55.1187 113 54 111.881 54 110.5C54 109.119 55.1187 108 56.5 108C57.8812 108 59 109.119 59 110.5Z" fill="#1D293F"/>
<path fill-rule="evenodd" clip-rule="evenodd" d="M73 110.5C73 111.881 71.8812 113 70.5 113C69.1187 113 68 111.881 68 110.5C68 109.119 69.1187 108 70.5 108C71.8812 108 73 109.119 73 110.5Z" fill="#1D293F"/>
<path fill-rule="evenodd" clip-rule="evenodd" d="M87 110.5C87 111.881 85.8812 113 84.5 113C83.1187 113 82 111.881 82 110.5C82 109.119 83.1187 108 84.5 108C85.8812 108 87 109.119 87 110.5Z" fill="#1D293F"/>
<path fill-rule="evenodd" clip-rule="evenodd" d="M100 110.5C100 111.881 98.8812 113 97.5 113C96.1187 113 95 111.881 95 110.5C95 109.119 96.1187 108 97.5 108C98.8812 108 100 109.119 100 110.5Z" fill="#1D293F"/>
<path fill-rule="evenodd" clip-rule="evenodd" d="M114 110.5C114 111.881 112.881 113 111.5 113C110.119 113 109 111.881 109 110.5C109 109.119 110.119 108 111.5 108C112.881 108 114 109.119 114 110.5Z" fill="#1D293F"/>
<path fill-rule="evenodd" clip-rule="evenodd" d="M127 110.5C127 111.881 125.881 113 124.5 113C123.119 113 122 111.881 122 110.5C122 109.119 123.119 108 124.5 108C125.881 108 127 109.119 127 110.5Z" fill="#1D293F"/>
<path fill-rule="evenodd" clip-rule="evenodd" d="M140 110.5C140 111.881 138.881 113 137.5 113C136.119 113 135 111.881 135 110.5C135 109.119 136.119 108 137.5 108C138.881 108 140 109.119 140 110.5Z" fill="#1D293F"/>
<path fill-rule="evenodd" clip-rule="evenodd" d="M154 110.5C154 111.881 152.881 113 151.5 113C150.119 113 149 111.881 149 110.5C149 109.119 150.119 108 151.5 108C152.881 108 154 109.119 154 110.5Z" fill="#1D293F"/>
<path fill-rule="evenodd" clip-rule="evenodd" d="M5 124.5C5 125.881 3.88125 127 2.5 127C1.11875 127 0 125.881 0 124.5C0 123.119 1.11875 122 2.5 122C3.88125 122 5 123.119 5 124.5Z" fill="#1D293F"/>
<path fill-rule="evenodd" clip-rule="evenodd" d="M19 124.5C19 125.881 17.8812 127 16.5 127C15.1187 127 14 125.881 14 124.5C14 123.119 15.1187 122 16.5 122C17.8812 122 19 123.119 19 124.5Z" fill="#1D293F"/>
<path fill-rule="evenodd" clip-rule="evenodd" d="M32 124.5C32 125.881 30.8812 127 29.5 127C28.1187 127 27 125.881 27 124.5C27 123.119 28.1187 122 29.5 122C30.8812 122 32 123.119 32 124.5Z" fill="#1D293F"/>
<path fill-rule="evenodd" clip-rule="evenodd" d="M45 124.5C45 125.881 43.8812 127 42.5 127C41.1187 127 40 125.881 40 124.5C40 123.119 41.1187 122 42.5 122C43.8812 122 45 123.119 45 124.5Z" fill="#1D293F"/>
<path fill-rule="evenodd" clip-rule="evenodd" d="M59 124.5C59 125.881 57.8812 127 56.5 127C55.1187 127 54 125.881 54 124.5C54 123.119 55.1187 122 56.5 122C57.8812 122 59 123.119 59 124.5Z" fill="#1D293F"/>
<path fill-rule="evenodd" clip-rule="evenodd" d="M73 124.5C73 125.881 71.8812 127 70.5 127C69.1187 127 68 125.881 68 124.5C68 123.119 69.1187 122 70.5 122C71.8812 122 73 123.119 73 124.5Z" fill="#1D293F"/>
<path fill-rule="evenodd" clip-rule="evenodd" d="M87 124.5C87 125.881 85.8812 127 84.5 127C83.1187 127 82 125.881 82 124.5C82 123.119 83.1187 122 84.5 122C85.8812 122 87 123.119 87 124.5Z" fill="#1D293F"/>
<path fill-rule="evenodd" clip-rule="evenodd" d="M100 124.5C100 125.881 98.8812 127 97.5 127C96.1187 127 95 125.881 95 124.5C95 123.119 96.1187 122 97.5 122C98.8812 122 100 123.119 100 124.5Z" fill="#1D293F"/>
<path fill-rule="evenodd" clip-rule="evenodd" d="M114 124.5C114 125.881 112.881 127 111.5 127C110.119 127 109 125.881 109 124.5C109 123.119 110.119 122 111.5 122C112.881 122 114 123.119 114 124.5Z" fill="#1D293F"/>
<path fill-rule="evenodd" clip-rule="evenodd" d="M127 124.5C127 125.881 125.881 127 124.5 127C123.119 127 122 125.881 122 124.5C122 123.119 123.119 122 124.5 122C125.881 122 127 123.119 127 124.5Z" fill="#1D293F"/>
<path fill-rule="evenodd" clip-rule="evenodd" d="M140 124.5C140 125.881 138.881 127 137.5 127C136.119 127 135 125.881 135 124.5C135 123.119 136.119 122 137.5 122C138.881 122 140 123.119 140 124.5Z" fill="#1D293F"/>
<path fill-rule="evenodd" clip-rule="evenodd" d="M154 124.5C154 125.881 152.881 127 151.5 127C150.119 127 149 125.881 149 124.5C149 123.119 150.119 122 151.5 122C152.881 122 154 123.119 154 124.5Z" fill="#1D293F"/>
<path fill-rule="evenodd" clip-rule="evenodd" d="M5 137.5C5 138.881 3.88125 140 2.5 140C1.11875 140 0 138.881 0 137.5C0 136.119 1.11875 135 2.5 135C3.88125 135 5 136.119 5 137.5Z" fill="#1D293F"/>
<path fill-rule="evenodd" clip-rule="evenodd" d="M19 137.5C19 138.881 17.8812 140 16.5 140C15.1187 140 14 138.881 14 137.5C14 136.119 15.1187 135 16.5 135C17.8812 135 19 136.119 19 137.5Z" fill="#1D293F"/>
<path fill-rule="evenodd" clip-rule="evenodd" d="M32 137.5C32 138.881 30.8812 140 29.5 140C28.1187 140 27 138.881 27 137.5C27 136.119 28.1187 135 29.5 135C30.8812 135 32 136.119 32 137.5Z" fill="#1D293F"/>
<path fill-rule="evenodd" clip-rule="evenodd" d="M45 137.5C45 138.881 43.8812 140 42.5 140C41.1187 140 40 138.881 40 137.5C40 136.119 41.1187 135 42.5 135C43.8812 135 45 136.119 45 137.5Z" fill="#1D293F"/>
<path fill-rule="evenodd" clip-rule="evenodd" d="M59 137.5C59 138.881 57.8812 140 56.5 140C55.1187 140 54 138.881 54 137.5C54 136.119 55.1187 135 56.5 135C57.8812 135 59 136.119 59 137.5Z" fill="#1D293F"/>
<path fill-rule="evenodd" clip-rule="evenodd" d="M73 137.5C73 138.881 71.8812 140 70.5 140C69.1187 140 68 138.881 68 137.5C68 136.119 69.1187 135 70.5 135C71.8812 135 73 136.119 73 137.5Z" fill="#1D293F"/>
<path fill-rule="evenodd" clip-rule="evenodd" d="M87 137.5C87 138.881 85.8812 140 84.5 140C83.1187 140 82 138.881 82 137.5C82 136.119 83.1187 135 84.5 135C85.8812 135 87 136.119 87 137.5Z" fill="#1D293F"/>
<path fill-rule="evenodd" clip-rule="evenodd" d="M100 137.5C100 138.881 98.8812 140 97.5 140C96.1187 140 95 138.881 95 137.5C95 136.119 96.1187 135 97.5 135C98.8812 135 100 136.119 100 137.5Z" fill="#1D293F"/>
<path fill-rule="evenodd" clip-rule="evenodd" d="M114 137.5C114 138.881 112.881 140 111.5 140C110.119 140 109 138.881 109 137.5C109 136.119 110.119 135 111.5 135C112.881 135 114 136.119 114 137.5Z" fill="#1D293F"/>
<path fill-rule="evenodd" clip-rule="evenodd" d="M127 137.5C127 138.881 125.881 140 124.5 140C123.119 140 122 138.881 122 137.5C122 136.119 123.119 135 124.5 135C125.881 135 127 136.119 127 137.5Z" fill="#1D293F"/>
<path fill-rule="evenodd" clip-rule="evenodd" d="M140 137.5C140 138.881 138.881 140 137.5 140C136.119 140 135 138.881 135 137.5C135 136.119 136.119 135 137.5 135C138.881 135 140 136.119 140 137.5Z" fill="#1D293F"/>
<path fill-rule="evenodd" clip-rule="evenodd" d="M154 137.5C154 138.881 152.881 140 151.5 140C150.119 140 149 138.881 149 137.5C149 136.119 150.119 135 151.5 135C152.881 135 154 136.119 154 137.5Z" fill="#1D293F"/>
<path fill-rule="evenodd" clip-rule="evenodd" d="M5 151.5C5 152.881 3.88125 154 2.5 154C1.11875 154 0 152.881 0 151.5C0 150.119 1.11875 149 2.5 149C3.88125 149 5 150.119 5 151.5Z" fill="#1D293F"/>
<path fill-rule="evenodd" clip-rule="evenodd" d="M19 151.5C19 152.881 17.8812 154 16.5 154C15.1187 154 14 152.881 14 151.5C14 150.119 15.1187 149 16.5 149C17.8812 149 19 150.119 19 151.5Z" fill="#1D293F"/>
<path fill-rule="evenodd" clip-rule="evenodd" d="M32 151.5C32 152.881 30.8812 154 29.5 154C28.1187 154 27 152.881 27 151.5C27 150.119 28.1187 149 29.5 149C30.8812 149 32 150.119 32 151.5Z" fill="#1D293F"/>
<path fill-rule="evenodd" clip-rule="evenodd" d="M45 151.5C45 152.881 43.8812 154 42.5 154C41.1187 154 40 152.881 40 151.5C40 150.119 41.1187 149 42.5 149C43.8812 149 45 150.119 45 151.5Z" fill="#1D293F"/>
<path fill-rule="evenodd" clip-rule="evenodd" d="M59 151.5C59 152.881 57.8812 154 56.5 154C55.1187 154 54 152.881 54 151.5C54 150.119 55.1187 149 56.5 149C57.8812 149 59 150.119 59 151.5Z" fill="#1D293F"/>
<path fill-rule="evenodd" clip-rule="evenodd" d="M73 151.5C73 152.881 71.8812 154 70.5 154C69.1187 154 68 152.881 68 151.5C68 150.119 69.1187 149 70.5 149C71.8812 149 73 150.119 73 151.5Z" fill="#1D293F"/>
<path fill-rule="evenodd" clip-rule="evenodd" d="M87 151.5C87 152.881 85.8812 154 84.5 154C83.1187 154 82 152.881 82 151.5C82 150.119 83.1187 149 84.5 149C85.8812 149 87 150.119 87 151.5Z" fill="#1D293F"/>
<path fill-rule="evenodd" clip-rule="evenodd" d="M100 151.5C100 152.881 98.8812 154 97.5 154C96.1187 154 95 152.881 95 151.5C95 150.119 96.1187 149 97.5 149C98.8812 149 100 150.119 100 151.5Z" fill="#1D293F"/>
<path fill-rule="evenodd" clip-rule="evenodd" d="M114 151.5C114 152.881 112.881 154 111.5 154C110.119 154 109 152.881 109 151.5C109 150.119 110.119 149 111.5 149C112.881 149 114 150.119 114 151.5Z" fill="#1D293F"/>
<path fill-rule="evenodd" clip-rule="evenodd" d="M127 151.5C127 152.881 125.881 154 124.5 154C123.119 154 122 152.881 122 151.5C122 150.119 123.119 149 124.5 149C125.881 149 127 150.119 127 151.5Z" fill="#1D293F"/>
<path fill-rule="evenodd" clip-rule="evenodd" d="M140 151.5C140 152.881 138.881 154 137.5 154C136.119 154 135 152.881 135 151.5C135 150.119 136.119 149 137.5 149C138.881 149 140 150.119 140 151.5Z" fill="#1D293F"/>
<path fill-rule="evenodd" clip-rule="evenodd" d="M154 151.5C154 152.881 152.881 154 151.5 154C150.119 154 149 152.881 149 151.5C149 150.119 150.119 149 151.5 149C152.881 149 154 150.119 154 151.5Z" fill="#1D293F"/>
<path fill-rule="evenodd" clip-rule="evenodd" d="M5 164.5C5 165.881 3.88125 167 2.5 167C1.11875 167 0 165.881 0 164.5C0 163.119 1.11875 162 2.5 162C3.88125 162 5 163.119 5 164.5Z" fill="#1D293F"/>
<path fill-rule="evenodd" clip-rule="evenodd" d="M19 164.5C19 165.881 17.8812 167 16.5 167C15.1187 167 14 165.881 14 164.5C14 163.119 15.1187 162 16.5 162C17.8812 162 19 163.119 19 164.5Z" fill="#1D293F"/>
<path fill-rule="evenodd" clip-rule="evenodd" d="M32 164.5C32 165.881 30.8812 167 29.5 167C28.1187 167 27 165.881 27 164.5C27 163.119 28.1187 162 29.5 162C30.8812 162 32 163.119 32 164.5Z" fill="#1D293F"/>
<path fill-rule="evenodd" clip-rule="evenodd" d="M45 164.5C45 165.881 43.8812 167 42.5 167C41.1187 167 40 165.881 40 164.5C40 163.119 41.1187 162 42.5 162C43.8812 162 45 163.119 45 164.5Z" fill="#1D293F"/>
<path fill-rule="evenodd" clip-rule="evenodd" d="M59 164.5C59 165.881 57.8812 167 56.5 167C55.1187 167 54 165.881 54 164.5C54 163.119 55.1187 162 56.5 162C57.8812 162 59 163.119 59 164.5Z" fill="#1D293F"/>
<path fill-rule="evenodd" clip-rule="evenodd" d="M73 164.5C73 165.881 71.8812 167 70.5 167C69.1187 167 68 165.881 68 164.5C68 163.119 69.1187 162 70.5 162C71.8812 162 73 163.119 73 164.5Z" fill="#1D293F"/>
<path fill-rule="evenodd" clip-rule="evenodd" d="M87 164.5C87 165.881 85.8812 167 84.5 167C83.1187 167 82 165.881 82 164.5C82 163.119 83.1187 162 84.5 162C85.8812 162 87 163.119 87 164.5Z" fill="#1D293F"/>
<path fill-rule="evenodd" clip-rule="evenodd" d="M100 164.5C100 165.881 98.8812 167 97.5 167C96.1187 167 95 165.881 95 164.5C95 163.119 96.1187 162 97.5 162C98.8812 162 100 163.119 100 164.5Z" fill="#1D293F"/>
<path fill-rule="evenodd" clip-rule="evenodd" d="M114 164.5C114 165.881 112.881 167 111.5 167C110.119 167 109 165.881 109 164.5C109 163.119 110.119 162 111.5 162C112.881 162 114 163.119 114 164.5Z" fill="#1D293F"/>
<path fill-rule="evenodd" clip-rule="evenodd" d="M127 164.5C127 165.881 125.881 167 124.5 167C123.119 167 122 165.881 122 164.5C122 163.119 123.119 162 124.5 162C125.881 162 127 163.119 127 164.5Z" fill="#1D293F"/>
<path fill-rule="evenodd" clip-rule="evenodd" d="M140 164.5C140 165.881 138.881 167 137.5 167C136.119 167 135 165.881 135 164.5C135 163.119 136.119 162 137.5 162C138.881 162 140 163.119 140 164.5Z" fill="#1D293F"/>
<path fill-rule="evenodd" clip-rule="evenodd" d="M154 164.5C154 165.881 152.881 167 151.5 167C150.119 167 149 165.881 149 164.5C149 163.119 150.119 162 151.5 162C152.881 162 154 163.119 154 164.5Z" fill="#1D293F"/>
<path fill-rule="evenodd" clip-rule="evenodd" d="M19 2.5C19 3.88125 17.8812 5 16.5 5C15.1187 5 14 3.88125 14 2.5C14 1.11875 15.1187 0 16.5 0C17.8812 0 19 1.11875 19 2.5Z" fill="#1D293F"/>
<path fill-rule="evenodd" clip-rule="evenodd" d="M32 2.5C32 3.88125 30.8812 5 29.5 5C28.1187 5 27 3.88125 27 2.5C27 1.11875 28.1187 0 29.5 0C30.8812 0 32 1.11875 32 2.5Z" fill="#1D293F"/>
<path fill-rule="evenodd" clip-rule="evenodd" d="M45 2.5C45 3.88125 43.8812 5 42.5 5C41.1187 5 40 3.88125 40 2.5C40 1.11875 41.1187 0 42.5 0C43.8812 0 45 1.11875 45 2.5Z" fill="#1D293F"/>
<path fill-rule="evenodd" clip-rule="evenodd" d="M59 2.5C59 3.88125 57.8812 5 56.5 5C55.1187 5 54 3.88125 54 2.5C54 1.11875 55.1187 0 56.5 0C57.8812 0 59 1.11875 59 2.5Z" fill="#1D293F"/>
<path fill-rule="evenodd" clip-rule="evenodd" d="M73 2.5C73 3.88125 71.8812 5 70.5 5C69.1187 5 68 3.88125 68 2.5C68 1.11875 69.1187 0 70.5 0C71.8812 0 73 1.11875 73 2.5Z" fill="#1D293F"/>
<path fill-rule="evenodd" clip-rule="evenodd" d="M87 2.5C87 3.88125 85.8812 5 84.5 5C83.1187 5 82 3.88125 82 2.5C82 1.11875 83.1187 0 84.5 0C85.8812 0 87 1.11875 87 2.5Z" fill="#1D293F"/>
<path fill-rule="evenodd" clip-rule="evenodd" d="M100 2.5C100 3.88125 98.8812 5 97.5 5C96.1187 5 95 3.88125 95 2.5C95 1.11875 96.1187 0 97.5 0C98.8812 0 100 1.11875 100 2.5Z" fill="#1D293F"/>
<path fill-rule="evenodd" clip-rule="evenodd" d="M114 2.5C114 3.88125 112.881 5 111.5 5C110.119 5 109 3.88125 109 2.5C109 1.11875 110.119 0 111.5 0C112.881 0 114 1.11875 114 2.5Z" fill="#1D293F"/>
<path fill-rule="evenodd" clip-rule="evenodd" d="M127 2.5C127 3.88125 125.881 5 124.5 5C123.119 5 122 3.88125 122 2.5C122 1.11875 123.119 0 124.5 0C125.881 0 127 1.11875 127 2.5Z" fill="#1D293F"/>
<path fill-rule="evenodd" clip-rule="evenodd" d="M140 2.5C140 3.88125 138.881 5 137.5 5C136.119 5 135 3.88125 135 2.5C135 1.11875 136.119 0 137.5 0C138.881 0 140 1.11875 140 2.5Z" fill="#1D293F"/>
<path fill-rule="evenodd" clip-rule="evenodd" d="M154 2.5C154 3.88125 152.881 5 151.5 5C150.119 5 149 3.88125 149 2.5C149 1.11875 150.119 0 151.5 0C152.881 0 154 1.11875 154 2.5Z" fill="#1D293F"/>
</svg>
